<svg id="Layer_2" data-name="Layer 2" xmlns="http://www.w3.org/2000/svg" viewBox="0 0 35 52.28"><defs><style>.cls-1{fill:#47b97e;}.cls-2{fill:#8163aa;}.cls-3{fill:#ef5225;}.cls-4{fill:#f37264;}.cls-5{fill:#48b6e8;}</style></defs><title>figma</title><path id="path0_fill" data-name="path0 fill" class="cls-1" d="M11.62,55.79a8.71,8.71,0,0,0,8.75-8.67l0-8.72-8.71,0a8.71,8.71,0,1,0-.07,17.42Z" transform="translate(-2.94 -3.51)"/><path id="path1_fill" data-name="path1 fill" class="cls-2" d="M3,29.62a8.72,8.72,0,0,1,8.75-8.68l8.72,0L20.4,38.4l-8.71,0A8.72,8.72,0,0,1,3,29.62Z" transform="translate(-2.94 -3.51)"/><path id="path1_fill-2" data-name="path1 fill" class="cls-3" d="M3.08,12.19a8.72,8.72,0,0,1,8.75-8.68l8.72,0L20.48,21l-8.72,0A8.72,8.72,0,0,1,3.08,12.19Z" transform="translate(-2.94 -3.51)"/><path id="path2_fill" data-name="path2 fill" class="cls-4" d="M20.55,3.55l8.71,0A8.72,8.72,0,1,1,29.19,21l-8.71,0Z" transform="translate(-2.94 -3.51)"/><path id="path3_fill" data-name="path3 fill" class="cls-5" d="M37.87,29.76A8.72,8.72,0,1,1,29.19,21,8.72,8.72,0,0,1,37.87,29.76Z" transform="translate(-2.94 -3.51)"/></svg>