<svg xmlns="http://www.w3.org/2000/svg" xmlns:xlink="http://www.w3.org/1999/xlink" version="1.1" x="0px" y="0px" viewBox="0 0 100 125" style="enable-background:new 0 0 100 100;" xml:space="preserve"><path d="M58.7841797,35.5068359c-3.1679688,0-5.7460938,2.5737305-5.7460938,5.737793  c0,3.1635742,2.578125,5.7373047,5.7460938,5.7373047c3.1689453,0,5.7470703-2.5737305,5.7470703-5.7373047  C64.53125,38.0805664,61.953125,35.5068359,58.7841797,35.5068359z M58.7841797,44.9819336  c-2.0654297,0-3.7460938-1.6767578-3.7460938-3.7373047c0-2.0610352,1.6806641-3.737793,3.7460938-3.737793  c2.0664062,0,3.7470703,1.6767578,3.7470703,3.737793C62.53125,43.3051758,60.8505859,44.9819336,58.7841797,44.9819336z"/><path d="M59.9189453,31.0181274c-0.3035889-0.0332642-0.6121826-0.0485229-0.9230957-0.0548096  c-0.060791-0.0007324-0.1193848-0.0106812-0.1804199-0.0106812c-0.0048828,0-0.0095215,0.0008545-0.0144043,0.0008545  c-0.0056152,0-0.0112305-0.0008545-0.0168457-0.0008545c-0.397583,0-0.7883301,0.02771-1.1744385,0.0715332  c-8.9195557,0.7295532-15.8028564,9.2197876-16.1038818,9.5974121c-0.2900391,0.3647461-0.2900391,0.8813477,0,1.2460938  c0.2883301,0.3617554,6.6184082,8.1679688,14.9907227,9.4667969c0.7370605,0.1670532,1.5007324,0.2631836,2.2875977,0.2631836  c0.7407227,0,1.4621582-0.081665,2.1591797-0.2301636c8.4666748-1.2075195,14.8901367-9.1353149,15.1806641-9.4998169  c0.2900391-0.3647461,0.2900391-0.8813477,0-1.2460938C75.8218994,40.2425537,68.8869629,31.690979,59.9189453,31.0181274z   M67.1240234,41.2749023c0,3.977478-2.8118896,7.3076172-6.5549316,8.1260376  c-0.5775146,0.0791626-1.1605225,0.1351929-1.7536621,0.1351929c-0.6485596,0-1.2852783-0.0663452-1.9152832-0.1607056  c-3.6928711-0.8555908-6.4558105-4.1586304-6.4558105-8.1005249c0-4.2890625,3.2687988-7.8290405,7.4509277-8.2734985  c0.3005371-0.0219727,0.6004639-0.0476074,0.9049072-0.0479736c0.2142334,0.0004272,0.4249268,0.0158081,0.6351318,0.0321045  c0.0686035,0.003418,0.137207,0.0064087,0.2055664,0.0109253C63.838501,33.4258423,67.1240234,36.9746094,67.1240234,41.2749023z   M43.6074219,41.2441406c1-1.1176147,3.3359375-3.5212402,6.4337158-5.4550171  c-1.0056152,1.5914917-1.5968018,3.4689941-1.5968018,5.4857788c0,1.9710083,0.5661621,3.8081665,1.5301514,5.3764648  C46.9128418,44.7253418,44.6008301,42.3519287,43.6074219,41.2441406z M67.548584,46.725647  c0.9921875-1.5841675,1.5754395-3.4486694,1.5754395-5.4507446c0-2.0404663-0.6038818-3.93927-1.6313477-5.5424805  c3.144043,1.9437866,5.5184326,4.3850098,6.5297852,5.5126953C73.0180664,42.3673706,70.666748,44.7875977,67.548584,46.725647z"/><path d="M41.7773438,24.300293c-9.3603516,9.3598633-9.3603516,24.5898438,0,33.949707  c4.6806641,4.6806641,10.8261719,7.0200195,16.9746094,7.0200195c6.1464844,0,12.2958984-2.3408203,16.9755859-7.0200195  c9.3603516-9.3598633,9.3603516-24.5898438,0-33.949707C66.3662109,14.940918,51.1367188,14.940918,41.7773438,24.300293z   M74.3134766,56.8359375c-8.5810547,8.5800781-22.5429688,8.5800781-31.1220703,0  c-8.5800781-8.5800781-8.5800781-22.5415039,0-31.121582c4.2900391-4.2900391,9.9248047-6.4350586,15.5605469-6.4350586  s11.2714844,2.1450195,15.5615234,6.4350586C82.8935547,34.2944336,82.8935547,48.2558594,74.3134766,56.8359375z"/><path d="M36.6572266,19.1796875C25.8127441,30.0241699,24.6296387,46.9172363,33.090332,59.0922852l-4.2247314,4.2247314  c-1.4615479-0.4761353-3.1295166-0.1514893-4.2874756,1.0072021L12.3232422,76.5791016  c-1.4804688,1.4804688-2.2958984,3.4555664-2.2958984,5.5625s0.8154297,4.0820312,2.2958984,5.5625S15.7792969,90,17.8857422,90  c2.1074219,0,4.0820312-0.8154297,5.5625-2.2958984L35.703125,75.449707  c1.1584473-1.1590576,1.4821777-2.8262329,1.0067139-4.2874146l4.2255859-4.2251587  c5.3358154,3.7077026,11.5743408,5.5706787,17.8165283,5.5706787c8.0019531,0,16.0039062-3.0458984,22.0957031-9.137207  C86.75,57.46875,90,49.621582,90,41.2753906c0-8.3466797-3.25-16.1938477-9.1523438-22.0957031  C68.6650391,6.9970703,48.8417969,6.9951172,36.6572266,19.1796875z M34.2890625,74.0356445L22.0341797,86.2900391  C20.9316406,87.3925781,19.4589844,88,17.8857422,88c-1.5722656,0-3.0458984-0.6074219-4.1484375-1.7099609  c-1.1025391-1.1030273-1.7099609-2.5761719-1.7099609-4.1484375s0.6074219-3.0454102,1.7099609-4.1484375l12.2548828-12.2548828  c0.4316406-0.4316406,0.9990234-0.6474609,1.5654297-0.6474609c0.5673828,0,1.1347656,0.2158203,1.5664062,0.6474609  l5.1672363,5.1671753C35.1520996,71.7693481,35.1514893,73.1727295,34.2890625,74.0356445z M35.6291504,69.4147949  l-5.0168457-5.0163574l3.6828613-3.6828613c0.7303467,0.9174805,1.5134277,1.8064575,2.3620605,2.6550293  c0.8485107,0.8483887,1.7374268,1.6314087,2.6547852,2.3616943L35.6291504,69.4147949z M79.4335938,61.956543  c-11.4033203,11.4013672-29.9589844,11.4033203-41.3623047,0c-11.4033203-11.4038086-11.4033203-29.9589844,0-41.362793  c5.7021484-5.7016602,13.1914062-8.5527344,20.6816406-8.5527344c7.4892578,0,14.9785156,2.8510742,20.6806641,8.5527344  C90.8369141,31.9975586,90.8369141,50.5527344,79.4335938,61.956543z"/><text x="0" y="115" fill="#000000" font-size="5px" font-weight="bold" font-family="'Helvetica Neue', Helvetica, Arial-Unicode, Arial, Sans-serif">Created by Made x Made</text><text x="0" y="120" fill="#000000" font-size="5px" font-weight="bold" font-family="'Helvetica Neue', Helvetica, Arial-Unicode, Arial, Sans-serif">from the Noun Project</text></svg>