<svg xmlns="http://www.w3.org/2000/svg" xmlns:xlink="http://www.w3.org/1999/xlink" version="1.1" x="0px" y="0px" viewBox="0 0 100 125" enable-background="new 0 0 100 100" xml:space="preserve"><g><path fill="none" stroke="#000000" stroke-width="0.75" stroke-linecap="round" stroke-miterlimit="10" d="M43.495,54.368   l0.04-16.847c0-1.579,1.227-2.858,2.74-2.858l0,0c1.513,0,2.678,1.667,2.74,2.858l0.311,19.625"/><line fill="none" stroke="#000000" stroke-width="0.75" stroke-linecap="round" stroke-miterlimit="10" x1="66.078" y1="72.45" x2="66.078" y2="60.445"/><path fill="none" stroke="#000000" stroke-width="0.75" stroke-linecap="round" stroke-miterlimit="10" d="M43.495,54.368   c-2.178,2.199-1.934,3.71-1.934,4.959v13.166"/><path fill="none" stroke="#000000" stroke-width="0.75" stroke-linecap="round" stroke-miterlimit="10" d="M41.715,56.935   L41.715,56.935c-2.198,0-2.515,1.837-2.515,3.885c0,0-0.093,2.675,0,4.536c0.093,1.861,1.053,3.745,1.99,4.395"/><path fill="none" stroke="#000000" stroke-width="0.75" stroke-linecap="round" stroke-miterlimit="10" d="M48.105,81.01   c-4.17-1.134-6.553-5.841-6.553-9.083"/><path fill="none" stroke="#000000" stroke-width="0.75" stroke-linecap="round" stroke-miterlimit="10" d="M66.071,71.536   c0,3.27-2.188,7.968-6.416,9.083"/><line fill="none" stroke="#000000" stroke-width="0.75" stroke-linecap="round" stroke-miterlimit="10" x1="44.033" y1="78.641" x2="44.033" y2="84.555"/><line fill="none" stroke="#000000" stroke-width="0.75" stroke-linecap="round" stroke-miterlimit="10" x1="63.178" y1="78.641" x2="63.178" y2="84.555"/><path fill="none" stroke="#000000" stroke-width="0.75" stroke-linecap="round" stroke-miterlimit="10" d="M49.365,57.238   l-0.062-4.385c0-1.767,1.226-3.034,2.739-3.034l0,0c1.513,0,2.74,1.267,2.74,2.83v4.46"/><path fill="none" stroke="#000000" stroke-width="0.75" stroke-linecap="round" stroke-miterlimit="10" d="M54.79,56.919v-2.093   c0-1.579,1.227-2.858,2.74-2.858l0,0c1.513,0,2.74,1.28,2.74,2.858v3.739"/><path fill="none" stroke="#000000" stroke-width="0.75" stroke-linecap="round" stroke-miterlimit="10" d="M60.598,58.799v-2.093   c0-1.579,1.227-2.858,2.74-2.858l0,0c1.513,0,2.74,1.28,2.74,2.858v3.739"/><path fill="none" stroke="#000000" stroke-width="0.75" stroke-linecap="round" stroke-miterlimit="10" d="M49.326,46.422"/><path fill="none" stroke="#000000" stroke-width="0.6197" stroke-linecap="round" stroke-miterlimit="10" d="M38.768,37.287   c0-3.942,3.196-7.138,7.138-7.138s7.138,3.196,7.138,7.138"/><path fill="none" stroke="#000000" stroke-width="0.75" stroke-linecap="round" stroke-miterlimit="10" d="M43.519,46.808"/><path fill="none" stroke="#000000" stroke-width="0.6197" stroke-linecap="round" stroke-miterlimit="10" d="M33.329,37.878   c0-7.005,5.679-12.684,12.684-12.684s12.684,5.679,12.684,12.684"/><line fill="none" stroke="#000000" stroke-width="0.6197" stroke-linecap="round" stroke-miterlimit="10" x1="59.596" y1="28.34" x2="75.684" y2="20.273"/><circle fill="none" stroke="#000000" stroke-width="0.6197" stroke-linecap="round" stroke-miterlimit="10" cx="78.651" cy="17.96" r="3.375"/><line fill="none" stroke="#000000" stroke-width="0.6197" stroke-linecap="round" stroke-miterlimit="10" x1="61.51" y1="36.505" x2="70.109" y2="38.563"/><circle fill="none" stroke="#000000" stroke-width="0.6197" stroke-linecap="round" stroke-miterlimit="10" cx="73.543" cy="39.498" r="3.375"/><line fill="none" stroke="#000000" stroke-width="0.6197" stroke-linecap="round" stroke-miterlimit="10" x1="46.013" y1="22.315" x2="46.013" y2="15.94"/><circle fill="none" stroke="#000000" stroke-width="0.6197" stroke-linecap="round" stroke-miterlimit="10" cx="46.013" cy="12.502" r="3.375"/><line fill="none" stroke="#000000" stroke-width="0.6197" stroke-linecap="round" stroke-miterlimit="10" x1="31.02" y1="31.695" x2="13.461" y2="27.75"/><circle fill="none" stroke="#000000" stroke-width="0.6197" stroke-linecap="round" stroke-miterlimit="10" cx="9.985" cy="26.627" r="3.375"/></g><text x="0" y="115" fill="#000000" font-size="5px" font-weight="bold" font-family="'Helvetica Neue', Helvetica, Arial-Unicode, Arial, Sans-serif">Created by Manuel Nilsson</text><text x="0" y="120" fill="#000000" font-size="5px" font-weight="bold" font-family="'Helvetica Neue', Helvetica, Arial-Unicode, Arial, Sans-serif">from the Noun Project</text></svg>