<svg xmlns="http://www.w3.org/2000/svg" xmlns:xlink="http://www.w3.org/1999/xlink" version="1.1" x="0px" y="0px" viewBox="0 0 64 80" enable-background="new 0 0 64 64" xml:space="preserve"><g><g><path d="M47.1,6.4H17.4c-2.2,0-4,1.8-4,4v21.5c0,2.2,1.8,4,4,4h10.3c-0.4,1.4-1.5,3.9-3.9,5.4c-0.4,0.2-0.5,0.7-0.4,1.1    c0.1,0.4,0.5,0.7,1,0.7h15.7c0.4,0,0.8-0.3,1-0.7c0.1-0.4,0-0.9-0.4-1.1c-2.4-1.6-3.4-4-3.9-5.4h10.3c2.2,0,4-1.8,4-4V10.4    C51.1,8.2,49.3,6.4,47.1,6.4z M17.4,8.4h29.6c1.1,0,2,0.9,2,2v17.9H15.4V10.4C15.4,9.3,16.3,8.4,17.4,8.4z M37.4,41.1H27    c1.7-1.9,2.5-4.1,2.8-5.3h4.9C35,37,35.7,39.2,37.4,41.1z M47.1,33.8H35.5H29H17.4c-1.1,0-2-0.9-2-2v-1.6h33.6v1.6    C49.1,32.9,48.2,33.8,47.1,33.8z"/><path d="M45.9,49.1l2.9-3.5c0,0,0,0,0,0s0,0,0,0l1-1.2c0.5-0.6,0.8-1.3,0.8-2c0-0.8-0.3-1.5-0.9-2l-1.4-1.1    c-0.6-0.5-1.3-0.7-2.1-0.5c-0.7,0.1-1.4,0.6-1.9,1.1l-4.2,5.1H21c-0.3,0-0.6,0.2-0.8,0.4l-7.5,11.1c-0.2,0.3-0.2,0.7-0.1,1    s0.5,0.5,0.9,0.5h36.5c0.4,0,0.7-0.2,0.9-0.5s0.2-0.7-0.1-1L45.9,49.1z M41.9,50.8l-2.2,0.3l-0.1-2.3l4.8-5.7l2.4,2L41.9,50.8z     M46.7,40.6c0.1,0,0.3,0,0.4,0.1l1.4,1.1c0.1,0.1,0.2,0.3,0.2,0.4c0,0.3-0.1,0.6-0.3,0.8L48,43.5l-2.4-2L46,41    C46.2,40.8,46.4,40.6,46.7,40.6z M15.4,56l6.1-9.1h17l-0.8,1c-0.2,0.2-0.2,0.4-0.2,0.7l0.2,3c-3.3,1.5-5.3,0.1-7.2-1.2    c-1-0.7-1.9-1.3-3-1.5c-3.5-0.6-5.6,1.6-6.3,2.8c-0.3,0.5-0.1,1.1,0.4,1.3c0.5,0.3,1.1,0.1,1.4-0.4c0.1-0.1,1.3-2.3,4.2-1.8    c0.6,0.1,1.4,0.6,2.2,1.2c1.4,1,3.2,2.2,5.6,2.2c1.2,0,2.5-0.3,4-1.1l3.5-0.4c0.3,0,0.5-0.2,0.6-0.4l1.4-1.7l3.6,5.3H15.4z"/><path d="M21.1,25.1h7.2c0.6,0,1-0.4,1-1v-7.2c0-0.6-0.4-1-1-1h-7.2c-0.6,0-1,0.4-1,1v7.2C20.1,24.7,20.6,25.1,21.1,25.1z     M22.1,17.9h5.2v5.2h-5.2V17.9z"/><path d="M31.4,19.9c0.1,0.1,0.3,0.1,0.4,0.1c0.3,0,0.5-0.1,0.7-0.3l7.3-7.3c0.3-0.3,0.4-0.7,0.2-1.1c-0.2-0.4-0.5-0.6-0.9-0.6    h-7.3c-0.6,0-1,0.4-1,1v7.3C30.8,19.3,31,19.7,31.4,19.9z M32.8,12.7h3.8l-3.8,3.8V12.7z"/><path d="M34.4,21.3c0,2.7,2.2,5,5,5s5-2.2,5-5s-2.2-5-5-5S34.4,18.6,34.4,21.3z M42.3,21.3c0,1.6-1.3,3-3,3s-3-1.3-3-3s1.3-3,3-3    S42.3,19.7,42.3,21.3z"/></g></g><text x="0" y="79" fill="#000000" font-size="5px" font-weight="bold" font-family="'Helvetica Neue', Helvetica, Arial-Unicode, Arial, Sans-serif">Created by Berkah Icon</text><text x="0" y="84" fill="#000000" font-size="5px" font-weight="bold" font-family="'Helvetica Neue', Helvetica, Arial-Unicode, Arial, Sans-serif">from the Noun Project</text></svg>