<svg xmlns="http://www.w3.org/2000/svg" xmlns:xlink="http://www.w3.org/1999/xlink" version="1.1" x="0px" y="0px" viewBox="0 0 64 80" style="enable-background:new 0 0 64 64;" xml:space="preserve"><path d="M8,14c3.309,0,6-2.691,6-6s-2.691-6-6-6S2,4.691,2,8S4.691,14,8,14z M8,4c2.206,0,4,1.794,4,4s-1.794,4-4,4s-4-1.794-4-4  S5.794,4,8,4z"/><path d="M56,36c-3.309,0-6,2.691-6,6s2.691,6,6,6s6-2.691,6-6S59.309,36,56,36z M56,46c-2.206,0-4-1.794-4-4s1.794-4,4-4  s4,1.794,4,4S58.206,46,56,46z"/><path d="M56,50c-3.309,0-6,2.691-6,6s2.691,6,6,6s6-2.691,6-6S59.309,50,56,50z M56,60c-2.206,0-4-1.794-4-4s1.794-4,4-4  s4,1.794,4,4S58.206,60,56,60z"/><path d="M32.293,10.293l1.414,1.414l3-3c0.391-0.391,0.391-1.023,0-1.414l-3-3l-1.414,1.414L33.586,7H16v2h17.586L32.293,10.293z"/><path d="M28.707,22.707l-1.414-1.414l-3,3c-0.391,0.391-0.391,1.023,0,1.414l3,3l1.414-1.414L27.414,26H45v-2H27.414L28.707,22.707z  "/><path d="M52.5,7H39v2h13.5c4.136,0,7.5,3.364,7.5,7.5S56.636,24,52.5,24h-2.086l1.293-1.293l-1.414-1.414l-3,3  c-0.391,0.391-0.391,1.023,0,1.414l3,3l1.414-1.414L50.414,26H52.5c5.238,0,9.5-4.262,9.5-9.5S57.738,7,52.5,7z"/><path d="M44.707,45.707l3-3c0.391-0.391,0.391-1.023,0-1.414l-3-3l-1.414,1.414L44.586,41H32v2h12.586l-1.293,1.293L44.707,45.707z"/><path d="M11.5,43H13h1c3.309,0,6,2.691,6,6c0,4.411,3.589,8,8,8h16.586l-1.293,1.293l1.414,1.414l3-3  c0.391-0.391,0.391-1.023,0-1.414l-3-3l-1.414,1.414L44.586,55H28c-3.309,0-6-2.691-6-6c0-2.39-1.059-4.533-2.726-6h7.312  l-1.293,1.293l1.414,1.414l3-3c0.391-0.391,0.391-1.023,0-1.414l-3-3l-1.414,1.414L26.586,41H14h-1h-1.5C7.364,41,4,37.636,4,33.5  S7.364,26,11.5,26H22v-2H11.5C6.262,24,2,28.262,2,33.5S6.262,43,11.5,43z"/><rect x="15" y="50" width="2" height="2"/><rect x="11" y="50" width="2" height="2"/><rect x="7" y="50" width="2" height="2"/><text x="0" y="79" fill="#000000" font-size="5px" font-weight="bold" font-family="'Helvetica Neue', Helvetica, Arial-Unicode, Arial, Sans-serif">Created by Becris</text><text x="0" y="84" fill="#000000" font-size="5px" font-weight="bold" font-family="'Helvetica Neue', Helvetica, Arial-Unicode, Arial, Sans-serif">from the Noun Project</text></svg>