<svg xmlns="http://www.w3.org/2000/svg" xmlns:xlink="http://www.w3.org/1999/xlink" version="1.0" x="0px" y="0px" viewBox="0 0 100 125" enable-background="new 0 0 100 100" xml:space="preserve"><g><g><path d="M77.3818359,20.7651367h-6.6015625v-5.5097656c0-0.8286133-0.671875-1.5-1.5-1.5H20.6181641    c-0.828125,0-1.5,0.6713867-1.5,1.5v62.328125c0,0.8286133,0.671875,1.5,1.5,1.5h6.6015625v6.6611328    c0,0.8286133,0.671875,1.5,1.5,1.5h48.6621094c0.828125,0,1.5-0.6713867,1.5-1.5V22.2651367    C78.8818359,21.4365234,78.2099609,20.7651367,77.3818359,20.7651367z M75.8818359,23.7651367v28.2397461h-5.1015625V23.7651367    H75.8818359z M67.7802734,16.7553711V45H49.5898438v-1.203125c0-3.796875-2.7070312-7.3139648-6.4365234-8.362793    c-3.2392578-0.9106445-7.5888672-0.909668-10.8261719,0c-3.7304688,1.0483398-6.4375,4.5654297-6.4375,8.362793V45h-3.7714844    V16.7553711H67.7802734z M46.5898438,45H28.8896484v-1.203125c0-2.4799805,1.7871094-4.7827148,4.25-5.4750977    c2.7080078-0.7602539,6.4912109-0.7612305,9.2011719,0c2.4619141,0.6923828,4.2490234,2.9951172,4.2490234,5.4750977V45z     M22.1181641,48h45.6621094v28.0834961H22.1181641V48z M30.2197266,84.2446289v-5.1611328h39.0605469    c0.828125,0,1.5-0.6713867,1.5-1.5V55.0048828h5.1015625v29.2397461H30.2197266z"/><path d="M37.7041016,32.5063477c3.3085938,0,6-2.6914062,6-6s-2.6914062-6-6-6s-6,2.6914062-6,6    S34.3955078,32.5063477,37.7041016,32.5063477z M37.7041016,23.5063477c1.6542969,0,3,1.3457031,3,3s-1.3457031,3-3,3    s-3-1.3457031-3-3S36.0498047,23.5063477,37.7041016,23.5063477z"/><rect x="51.5830078" y="22.6733398" width="11.5" height="3"/><rect x="51.5830078" y="29.5063477" width="11.5" height="3"/><rect x="51.5830078" y="36.3398438" width="11.5" height="3"/><path d="M63.5,70.5V53.5048828c0-0.8286133-0.671875-1.5-1.5-1.5H28.4804688c-0.828125,0-1.5,0.6713867-1.5,1.5    V70.5c0,0.8286133,0.671875,1.5,1.5,1.5H62C62.828125,72,63.5,71.3286133,63.5,70.5z M60.5,60.5024414H41.3330078v-5.4975586H60.5    V60.5024414z M38.3330078,55.0048828v5.4975586h-8.3525391v-5.4975586H38.3330078z M29.9804688,63.5024414h8.3525391V69    h-8.3525391V63.5024414z M41.3330078,69v-5.4975586H60.5V69H41.3330078z"/></g></g><text x="0" y="115" fill="#000000" font-size="5px" font-weight="bold" font-family="'Helvetica Neue', Helvetica, Arial-Unicode, Arial, Sans-serif">Created by Yu luck</text><text x="0" y="120" fill="#000000" font-size="5px" font-weight="bold" font-family="'Helvetica Neue', Helvetica, Arial-Unicode, Arial, Sans-serif">from the Noun Project</text></svg>